<?xml version="1.0" encoding="utf-8"?>
<!-- Generator: Adobe Illustrator 22.0.0, SVG Export Plug-In . SVG Version: 6.00 Build 0)  -->
<svg version="1.1" id="Layer_1" xmlns="http://www.w3.org/2000/svg" xmlns:xlink="http://www.w3.org/1999/xlink" x="0px" y="0px"
	 viewBox="0 0 1394.4 189.7" style="enable-background:new 0 0 1394.4 189.7;" xml:space="preserve">
<style type="text/css">
	.st0{fill:#859D9E;}
	.st1{fill:#FFFFFF;}
</style>
<g id="Group_517" transform="translate(1488.18 2017.73) rotate(180)">
	<path class="st0" d="M93.3,1912.4V1831h1395v141.9c-8,12.8-19,23.7-32.5,31.6c-4.5,2.7-9.1,4.9-13.9,6.7
		c-42,16.4-90.7,1.1-115.3-38.1c-0.5-0.8-1-1.6-1.5-2.4c-6.7,5.4-14.2,9.8-22.2,13c-2.4,0.9-4.8,1.8-7.2,2.5
		c-44.4,13.1-90.9-11.7-104.9-55.6c-0.2-0.6-0.4-1.2-0.6-1.8c-4.1,2.7-8.4,5-12.9,6.8c-25.2,10.2-54.4,5.9-75.7-11.8
		c-1.5-1.3-3-2.6-4.5-4c-12.4,21.1-31.6,37.3-54.3,46c-1.9,0.8-3.9,1.4-5.9,2.1c-56.5,17.9-116.7-13.2-134.9-69.5
		c0-0.1-0.1-0.3-0.1-0.4c-1.1,0.5-2.2,1-3.3,1.4c-28.1,11.4-60.5,4.6-81.6-17.3c-0.6-0.6-1.1-1.2-1.7-1.8c-3.2,2.6-6.6,4.7-10.2,6.3
		c-7.3,3.3-15.3,4.6-23.2,4c-2.9-0.2-5.7-0.7-8.6-1.5c-0.4,7.3-2.2,14.5-5.4,21c-6,12.4-16,21.6-27.7,26.6c-11.6,5-24.9,6-37.6,2.2
		c-2.7-0.8-5.4-1.9-8-3.1c-4.3,34.8-27.4,63.4-58.8,75.7c-7.6,3-15.7,5-24.1,5.9c-51.2,5.5-97.1-31.4-102.8-82.5
		c0-0.2,0-0.3-0.1-0.5c-1.2,0.5-2.3,1-3.5,1.5c-27.6,11.3-59.4,4.5-79.9-17.1c-0.9-0.9-1.8-1.9-2.6-2.9c-2.1,2.2-4.4,4.3-6.8,6.2
		c-6.9,5.7-14.5,10.1-22.4,13.2c-32.2,12.8-70.1,4.9-94.3-21.9c-1-1-1.9-2.1-2.8-3.2c-2.2,2.5-4.5,4.8-7,7
		c-8.7,7.8-18.4,13.7-28.7,17.7c-35.1,13.7-76.4,5.4-103.5-23.7c-0.4-0.4-0.8-0.8-1.1-1.2c-2,1.3-4.1,2.4-6.2,3.5
		c-1.1,0.5-2.1,1-3.2,1.4C129,1922.1,109.4,1920.7,93.3,1912.4z"/>
	<path class="st1" d="M93.3,1903.7V1828h1395v154c-6.6,7.6-14.5,14.2-23.5,19.5c-7.3,4.3-15,7.5-22.9,9.7
		c-40.6,11.3-85.4-5.4-107.8-43.5c-2.4,2-4.9,3.8-7.5,5.4c-6.8,4.3-14.1,7.7-21.9,10c-0.6,0.2-1.2,0.4-1.8,0.5
		c-44.4,12.1-90.6-13.5-103.7-57.9c-2.7,1.8-5.6,3.4-8.4,4.8c-4.4,2.1-8.9,3.8-13.4,5c-24.8,6.5-52-0.1-71.2-18.8
		c-1.4,2.4-2.9,4.8-4.5,7c-13.5,19.4-33,33.8-55.7,41c-1,0.3-2.1,0.6-3.1,0.9c-55.7,15.9-114.3-15.3-131.9-70.9
		c-2.9,1.3-5.9,2.5-8.9,3.4c-1.1,0.4-2.3,0.7-3.4,1c-26.6,7-55.4-1.2-74.3-22.2c-2.3,1.8-4.7,3.5-7.3,4.8c-3.8,2-7.8,3.5-11.9,4.5
		c-7.4,1.7-15.3,1.5-22.8-0.5c-0.1,1.5-0.2,3-0.4,4.5c-0.8,5.7-2.4,11.3-5,16.5c-7.5,15.5-21.2,25.9-36.7,29.6
		c-11.9,2.9-24.8,1.8-36.7-3.9c-0.3,2.1-0.6,4.1-1,6.1c-6.7,35.2-32.8,63.2-66.8,72.6c-4.9,1.4-9.9,2.3-15.1,2.9
		c-51.3,5.5-97.4-31.7-102.9-83c-2.9,1.4-5.9,2.5-8.9,3.5c-1.2,0.4-2.4,0.7-3.5,1c-26.5,7-55.2-1.6-73.5-23c-2,2.1-4.2,4-6.4,5.9
		c-0.1,0.1-0.2,0.2-0.4,0.3c-9.5,7.8-20.3,13.2-31.4,16.2c-31.3,8.6-66.2-1.4-88.1-28.1c-2,2.2-4,4.3-6.2,6.2
		c-0.3,0.3-0.5,0.5-0.8,0.7c-11.2,10-24.2,16.9-37.7,20.7c-33.5,9.3-70.8-0.3-95.6-27.9c-2,1.3-4.1,2.4-6.2,3.5
		c-0.5,0.3-1.1,0.5-1.6,0.8c-3.5,1.6-7,2.8-10.5,3.7C128,1919.3,108.3,1915.1,93.3,1903.7z"/>
</g>
</svg>
