<svg xmlns="http://www.w3.org/2000/svg" width="31.39" height="31.445" viewBox="0 0 31.39 31.445"><defs><style>.a{fill:#ccc;}.b{fill:#518ef8;}.c{fill:#28b446;}.d{fill:#f2f2f2;}.e{fill:#ffd837;}.f{fill:#fff;}.g{fill:#f14336;}.h{fill:#7e2d25;}</style></defs><g transform="translate(-0.447)"><path class="a" d="M240.048,193.473V206.84l-4.2-.778-1.852-2.222-7.8-8.675,6.625-4.707c3.319,4.381,3.423,3.313,3.423,3.313a2.3,2.3,0,0,1,3.742-.344Z" transform="translate(-211.88 -178.761)"/><path class="b" d="M53.325,223.105,67.1,240.836c-.08.008-.161.012-.243.012H44.336Z" transform="translate(-41.194 -209.403)"/><path class="c" d="M20.937,68.61.447,85.855V63.14a2.5,2.5,0,0,1,2.5-2.5H17.892c-.642,1.1,1.737,1.811,1.737,3.178A11.937,11.937,0,0,0,20.937,68.61Z" transform="translate(0 -56.913)"/><path class="d" d="M241.1,291.372v.863a2.5,2.5,0,0,1-2.26,2.491l-11.528-11.376,2.79-2.828,6.441,6.355.356.351Z" transform="translate(-212.933 -263.293)"/><path class="e" d="M20.227,186.07l-3.056,3.1L14.38,192,3.142,203.384H2.95a2.5,2.5,0,0,1-2.5-2.5L17.9,183.19c.327.56,2.575-.007,3.032.446l.84,1.079C22.186,185.152,19.875,185.607,20.227,186.07Z" transform="translate(0 -171.939)"/><path class="f" d="M45.953,105.874a3.988,3.988,0,1,1,2.82-6.808l-.925.925a2.68,2.68,0,1,0,.705,2.549h-2.6v-1.308h3.988v.654A3.993,3.993,0,0,1,45.953,105.874Z" transform="translate(-38.968 -91.885)"/><path class="g" d="M269.074,3.724a7.478,7.478,0,1,1,11.742,9.052,17.086,17.086,0,0,0-1.532,1.889,24.265,24.265,0,0,0-3.742,9.132,24.034,24.034,0,0,0-4.133-9.666,17.06,17.06,0,0,0-1.142-1.355h0a7.48,7.48,0,0,1-1.194-9.052Z" transform="translate(-251.182)"/><path class="h" d="M328.992,56.947a3.979,3.979,0,1,1-3.98,3.98A3.979,3.979,0,0,1,328.992,56.947Z" transform="translate(-304.632 -53.45)"/></g></svg>