<svg xmlns="http://www.w3.org/2000/svg" width="51.25" height="51.25" viewBox="0 0 51.25 51.25">
  <g id="icons8_LOL" transform="translate(-0.375 -0.375)">
    <path id="Path_527" data-name="Path 527" d="M26,.375A25.625,25.625,0,1,0,51.625,26,25.63,25.63,0,0,0,26,.375Zm0,4A21.625,21.625,0,1,1,4.375,26,21.652,21.652,0,0,1,26,4.375ZM18,18c-2.211,0-6,2.75-6,4s3.789,0,6,0,4,1.406,4,0S20.211,18,18,18Zm16,0c-2.211,0-4,2.594-4,4s1.789,0,4,0,6,1.25,6,0S36.211,18,34,18ZM12.313,30c0,6.453,4.609,13.688,13.688,13.688S39.688,36.453,39.688,30c0,0-4.406,2.313-13.687,2.313S12.313,30,12.313,30Z" fill="#859d9e"/>
  </g>
</svg>
