<svg xmlns="http://www.w3.org/2000/svg" width="51.938" height="49.875" viewBox="0 0 51.938 49.875">
  <g id="icons8_User_Account" transform="translate(0 -2)">
    <path id="Path_528" data-name="Path 528" d="M35.063,2a8.394,8.394,0,0,0-8.125,5.375,13.951,13.951,0,0,1,4.938,11.188,21.943,21.943,0,0,1-5.187,13.5c4.211,1.594,10.8,4.789,12.688,9.688,6.633-.367,12.563-1.7,12.563-5.5V35c0-3.477-6.07-6.883-11.437-8.687-.242-.078-1.781-.453-.812-3.437a16.629,16.629,0,0,0,4.25-11.062C43.938,5.391,39.945,2,35.063,2ZM17.938,8.188c-5.2,0-9.687,3.555-9.687,10.375a17.93,17.93,0,0,0,4.813,11.813,4.247,4.247,0,0,1-1.25,4.938C6.375,37.3,0,40.906,0,44.5v1.375c0,4.9,9.344,6,18,6,8.672,0,17.938-1.1,17.938-6V44.5c0-3.7-6.414-7.266-12.125-9.187-.266-.086-1.906-1.828-.875-5h-.062a18.059,18.059,0,0,0,5-11.75C27.875,11.742,23.133,8.188,17.938,8.188Z" fill="#859d9e"/>
  </g>
</svg>
