<svg xmlns="http://www.w3.org/2000/svg" width="32.04" height="43.293" viewBox="0 0 32.04 43.293">
  <g id="prize" transform="translate(-7.98 -2.707)">
    <path id="Path_527" data-name="Path 527" d="M19.234,2.707,16.879,7.945l-5.723.484,1.172,5.617L7.98,17.8l4.254,3.859-1.309,5.594,5.707.621,2.231,5.3,4.984-2.856L28.761,33.3l2.356-5.238,5.727-.484-1.172-5.617L40.02,18.2l-4.254-3.86,1.309-5.594-5.711-.621-2.231-5.3L24.148,5.684ZM34,31.824l-.2.02-1.391,3.09-1.852,4.121L26.7,36.715l-2.9-1.754-2.937,1.684-3.922,2.242L15.18,34.723,14,31.922V46l10-5,10,5Z" fill="#7b9495"/>
  </g>
</svg>
