<svg xmlns="http://www.w3.org/2000/svg" xmlns:xlink="http://www.w3.org/1999/xlink" width="506" height="372.354" viewBox="0 0 506 372.354"><defs><style>.a,.ak,.as,.at,.aw{opacity:0.1;}.b{fill:#1b2326;}.c{clip-path:url(#a);}.d{fill:#020101;}.ab,.be,.bi,.bj,.d{opacity:0.3;}.e{clip-path:url(#b);}.f{opacity:0.4;}.aw,.g,.w{fill:#19100c;}.av,.g{opacity:0.8;}.h{fill:#354148;}.ah,.i,.w{opacity:0.2;}.j{opacity:0.25;}.k{fill:#f6d0ae;}.l{opacity:0.6;}.m{fill:#08090a;}.ac,.az,.n{opacity:0.5;}.o{fill:#8f2a25;}.p{clip-path:url(#c);}.q{fill:#8e2a24;}.r{clip-path:url(#d);}.ad,.s{fill:#dfddd7;}.t{clip-path:url(#e);}.u{fill:#0d0b08;}.ar,.u,.z{opacity:0.15;}.v{fill:#f7bb80;}.x{clip-path:url(#g);}.y{clip-path:url(#h);}.aa,.ab{fill:#2d1616;}.ad{stroke:#45433d;stroke-miterlimit:10;}.ae{fill:#d7a275;}.af{fill:#f6ba81;}.ag{fill:#67341f;}.ah,.ax{fill:#ef5e5e;}.ai{fill:#9f6341;}.aj{clip-path:url(#i);}.ak{fill:#030202;}.al{fill:#0f0708;}.am{clip-path:url(#l);}.an{fill:#560f0f;}.ao{fill:#160f0e;}.ap{fill:#fff;}.aq,.as{clip-path:url(#n);}.ar,.at,.av{fill:#070707;}.au{clip-path:url(#r);}.ay{clip-path:url(#u);}.az{fill:#130c0c;}.ba{fill:#ffedde;}.bb{fill:#af392f;}.bc{fill:#4c271a;}.bd{clip-path:url(#v);}.be{fill:#080606;}.bf{fill:#66341f;}.bg{clip-path:url(#w);}.bh{fill:#321a14;}.bi{fill:#7a411b;}.bj{fill:#0a0706;}.bk{fill:#1f1012;}</style><clipPath id="a"><path d="M832.96,822.55s37.847,7.884,39.653,12.091c0,0-30.041,4.208-39.653-2.4Z" transform="translate(-832.96 -822.55)"/></clipPath><clipPath id="b"><path d="M766.273,822.55s-37.847,7.884-39.653,12.091c0,0,30.041,4.208,39.653-2.4Z" transform="translate(-726.62 -822.55)"/></clipPath><clipPath id="c"><path d="M1127.95,803.47s40.907,8.521,42.855,13.069c0,0-32.463,4.548-42.855-2.6Z" transform="translate(-1127.95 -803.47)"/></clipPath><clipPath id="d"><path d="M1042.835,803.47s-40.907,8.521-42.855,13.069c0,0,32.463,4.548,42.855-2.6Z" transform="translate(-999.98 -803.47)"/></clipPath><clipPath id="e"><rect width="185.571" height="134.904"/></clipPath><clipPath id="g"><path d="M1121.41,685.842l17.822,25.033,49.591-38.612c.021-8.337-4.413-14.514-12.743-18.814Z" transform="translate(-1121.41 -653.45)"/></clipPath><clipPath id="h"><path d="M998.736,714.806l-23.453,14.663L946.17,670.478c4-7.317,10.852-10.6,20.223-10.363Z" transform="translate(-946.17 -660.103)"/></clipPath><clipPath id="i"><ellipse cx="18.828" cy="20.4" rx="18.828" ry="20.4"/></clipPath><clipPath id="l"><path d="M1105.81,562.37c12.842,6.148-1.105,15.251-24.027,25.472-11.107,4.951-26.747,14-37.818,15.768-11.667,1.863-28.235-11.695-38.874-16.157-8.536-3.584-9.166-.007-14.408-4.788-9.981-9.109-14.408-15.442,0-15.421,16.193.021,29.807-5.993,53.282-5.993S1091.2,555.386,1105.81,562.37Z" transform="translate(-981.464 -558.947)"/></clipPath><clipPath id="n"><path d="M994.48,551.12v29.807a67.722,67.722,0,0,0,15.633,0l6.2-5.752,6.2,5.752c20.351,7.459,51.716,3.754,80.992-4.682l.595-25.125Z" transform="translate(-994.48 -551.12)"/></clipPath><clipPath id="r"><path class="a" d="M1084.571,544.061c-5.752,2.663-9.187-3-14.358-.425-15.654,7.8-32.01,7.884-45.348.51-5.292-2.925-12.29,2.989-17.872-.078,0,0-38.307-5.114-24.672,52.672,0,0,9.74-35.707,49.024-21.753,0,0,8.2,3.57,14.443,3.443,6.247.127,14.443-3.443,14.443-3.443,39.285-13.961,49.024,21.753,49.024,21.753C1122.878,538.946,1084.571,544.061,1084.571,544.061Z" transform="translate(-979.387 -542.945)"/></clipPath><clipPath id="u"><path d="M1040.14,615.272s12.637-12.573,24.069-4.37c0,0,9.13-9.371,20.7,2.578C1084.914,613.472,1069.827,630.366,1040.14,615.272Z" transform="translate(-1040.14 -607.406)"/></clipPath><clipPath id="v"><path d="M1014.939,465.984c-25.67-3.613-44.98,5.256-58.672,25.153l-10.887-25.4c16.66-18.991,36.409-26.669,58.672-25.153Z" transform="translate(-945.38 -440.397)"/></clipPath><clipPath id="w"><path d="M1100.6,469.974c24.969-6.97,45.284-.737,61.477,17.17l7.438-26.619c-19.019-16.625-39.61-21.619-61.477-17.17Z" transform="translate(-1100.6 -441.81)"/></clipPath></defs><g transform="translate(-635.98 -315.812)"><g transform="translate(635.98 369.803)"><g transform="translate(31.911 183.691)"><g transform="translate(107.618 121.262)"><path class="b" d="M832.96,822.55s37.847,7.884,39.653,12.091c0,0-30.041,4.208-39.653-2.4Z" transform="translate(-832.96 -822.55)"/><g class="c"><path class="d" d="M831.912,823.99c4.732,8.564,28.865,11.043,38.116,11.078,0,0-34.546,4.208-44.158-2.4Z" transform="translate(-830.892 -822.97)"/></g></g><g transform="translate(32.293 121.262)"><path class="b" d="M766.273,822.55s-37.847,7.884-39.653,12.091c0,0,30.041,4.208,39.653-2.4Z" transform="translate(-726.62 -822.55)"/><g class="e"><path class="d" d="M764.736,823.99c-4.732,8.564-28.865,11.043-38.116,11.078,0,0,34.546,4.208,44.158-2.4Z" transform="translate(-726.62 -822.97)"/></g></g><path class="f" d="M707.93,718.151l9.216.276L718.2,657.85a28.011,28.011,0,0,0-5.4-2.5l1.643,61.271-6.51.34Z" transform="translate(-688.876 -652.523)"/><path class="b" d="M894.039,734.8s-11.674,12.268.213,9.676c0,0-.446,9.832,4.717,3.28,0,0-3.931,7.827,5.617.262,0,0-1.565,8.04,4.144-3.039C908.73,744.972,911,728.227,894.039,734.8Z" transform="translate(-741.661 -675.249)"/><path class="g" d="M905.145,748.274c.113-.269-.992,3.081-2.075,3.917C903.367,751.773,905.308,750.385,905.145,748.274Z" transform="translate(-745.79 -679.621)"/><path class="g" d="M898.724,742.96s-.205,3.237-2.224,4.179C896.493,747.139,899.574,747.04,898.724,742.96Z" transform="translate(-743.874 -678.075)"/><path class="g" d="M912.769,748.48a6.91,6.91,0,0,1-1.8,4A4.052,4.052,0,0,0,912.769,748.48Z" transform="translate(-748.094 -679.685)"/><path class="h" d="M881.98,713.559l28.4-1.318-5.178-57.921c-6.474-4.193-13.5-3.846-21.016.489Z" transform="translate(-739.639 -651.359)"/><path class="i" d="M905.2,654.662a18.846,18.846,0,0,0-4.455-2.132l4.137,46.255a10.672,10.672,0,0,1-10.136,11.61l-12.658.588-.106,2.918,28.4-1.317Z" transform="translate(-739.639 -651.701)"/><path class="b" d="M697.179,739.875s12.446,11.482.411,9.669c0,0,1.084,9.782-4.491,3.577,0,0,4.427,7.558-5.589.623,0,0,2.082,7.919-4.328-2.763C683.182,750.975,679.825,734.414,697.179,739.875Z" transform="translate(-681.582 -676.853)"/><path class="g" d="M694.3,753.924c-.127-.262,1.19,3.01,2.323,3.775C696.294,757.3,694.268,756.035,694.3,753.924Z" transform="translate(-684.897 -681.269)"/><path class="g" d="M700.03,749.4s1.339,2.954,3.563,3.124C703.593,752.524,700.675,753.522,700.03,749.4Z" transform="translate(-686.571 -679.954)"/><path class="g" d="M686.938,754.74A6.879,6.879,0,0,0,689,758.615,4.041,4.041,0,0,1,686.938,754.74Z" transform="translate(-682.745 -681.511)"/><path class="h" d="M706.6,716.189l-25.557,1.346,2.9-60.8c6.517-4.13,13.536-3.719,21.009.687Z" transform="translate(-681.033 -652.091)"/><path class="i" d="M704.944,657.742a27.271,27.271,0,0,0-6.262-2.763l1.232,43.917a13.438,13.438,0,0,1-12.729,13.8l-5.922.312-.234,4.852,25.557-1.346Z" transform="translate(-681.03 -652.415)"/><rect class="h" width="129.23" height="124.824" transform="translate(19.054 1.028)"/><path class="i" d="M829.588,652.81v74.935a42.322,42.322,0,0,1-42.323,42.323l-79.334,1.516v6.049H837.16V652.81Z" transform="translate(-688.876 -651.782)"/><path class="j" d="M829.759,721.229V652.81H685.144l-2.564,42.238C751.027,737.1,792.139,743.988,829.759,721.229Z" transform="translate(-681.482 -651.782)"/></g><g transform="translate(20.818 22.93)"><path class="k" d="M839.055,489.314l-.3-5.6a67.436,67.436,0,0,0-39.532-28.546c-42.671-6.389-46.233-30.338-46.233-30.338s-20.28-6.063-49.364,27.8c0,0-12.325,15.8-26.839,20.244,17.354,36.763-5.865,61.08-5.865,61.08a37.492,37.492,0,0,0,31.854,57.128s29.014-3.492,41.3,10.08c0,0,15.017,15.491,35.3.078,0,0,18.119-12.339,30.955-15.4l1.65-.46a86.18,86.18,0,0,1,12.8-2.748A30.648,30.648,0,0,0,845.111,533.2C845.1,533.2,827.927,508.991,839.055,489.314Z" transform="translate(-665.37 -424.405)"/><path class="j" d="M845.572,492.891a48.56,48.56,0,0,1-3.591-11.744c-.028-.184-.064-.375-.1-.567a67.509,67.509,0,0,0-35.545-22.993c-42.67-6.382-46.233-30.331-46.233-30.331s-20.28-6.063-49.364,27.8c0,0-12.325,15.8-26.839,20.244a68.809,68.809,0,0,1,5.213,15.321c5.886-6.474,17.2-17.864,22.639-16.221,0,0,26.974-1.594,53.487-2.04v32.2h4.7V472.286c23.113-.262,44.625.489,46.042,4.094,0,0,19.239,15.654,19.869,29.318C835.839,505.7,846.974,501.363,845.572,492.891Z" transform="translate(-670.774 -425.114)"/><g transform="translate(140.06 59.228)"><path class="b" d="M863.1,514.891c1.523-.2,2.911-.347,4.236-.581a16.1,16.1,0,0,0,3.648-1.013,9.269,9.269,0,0,0,2.968-1.99,23.05,23.05,0,0,0,2.55-3.287,7.094,7.094,0,0,1-.737,4.59A7.463,7.463,0,0,1,872.1,515.9a9.239,9.239,0,0,1-4.732.623A8.859,8.859,0,0,1,863.1,514.891Z" transform="translate(-863.1 -508.02)"/></g><g transform="translate(101.095 58.847)"><path class="b" d="M808.09,518.991a20.554,20.554,0,0,1,14.216-10.866,27.807,27.807,0,0,1,9.308-.46,42.887,42.887,0,0,1,9.017,2.09,65.239,65.239,0,0,1,8.373,3.74c1.339.723,2.642,1.516,3.945,2.288l1.912,1.233.949.63c.3.2.56.333.843.5a8.176,8.176,0,0,0,7.714-.432,13.028,13.028,0,0,0,5.816-6.3,12.367,12.367,0,0,1-5.093,7.487,11.212,11.212,0,0,1-4.434,1.849,8.75,8.75,0,0,1-4.958-.609c-.375-.184-.786-.382-1.126-.567l-.97-.545-1.92-1.112c-1.3-.7-2.592-1.4-3.917-2.047a68.886,68.886,0,0,0-8.068-3.45,42.116,42.116,0,0,0-8.408-2.1,28.454,28.454,0,0,0-8.564-.035A22.405,22.405,0,0,0,808.09,518.991Z" transform="translate(-808.09 -507.481)"/></g><g transform="translate(26.18 58.721)"><path class="b" d="M758.133,520.214a17.589,17.589,0,0,0-4.661-6.715,14.492,14.492,0,0,0-7.041-3.4,21.673,21.673,0,0,0-7.905.128,38.529,38.529,0,0,0-7.77,2.323c-1.282.46-2.522,1.063-3.783,1.6-1.225.623-2.479,1.2-3.683,1.87-1.225.645-2.451,1.289-3.634,2l-1.8,1.041-1.084.538a9.4,9.4,0,0,1-1.14.39,9.018,9.018,0,0,1-4.675-.007,11.875,11.875,0,0,1-4.03-2,12.42,12.42,0,0,1-4.6-7.168,13.3,13.3,0,0,0,5.376,6.021,8.766,8.766,0,0,0,7.275,1.041,7.736,7.736,0,0,0,.822-.354l.772-.46,1.785-1.162c1.183-.793,2.408-1.509,3.641-2.238.6-.375,1.24-.708,1.877-1.027l1.905-.985c1.31-.588,2.586-1.24,3.945-1.742a38.646,38.646,0,0,1,8.38-2.33,21.847,21.847,0,0,1,8.826.361,15.137,15.137,0,0,1,7.53,4.569A15.706,15.706,0,0,1,758.133,520.214Z" transform="translate(-702.33 -507.305)"/></g><g transform="translate(35.306 57.103)"><path class="b" d="M728.733,511.877a8.911,8.911,0,0,1-4.264,1.644,9.239,9.239,0,0,1-4.732-.623,7.463,7.463,0,0,1-3.669-3.294,7.077,7.077,0,0,1-.744-4.583,23.061,23.061,0,0,0,2.55,3.287,9.24,9.24,0,0,0,2.975,1.983A16.193,16.193,0,0,0,724.5,511.3C725.822,511.53,727.21,511.678,728.733,511.877Z" transform="translate(-715.213 -505.02)"/></g></g><path class="b" d="M871.27,552.789l3.273-5.511s-13.671-4.668-23.071-30.537c0,0-9.024-25.04-14.939-36.019a48.3,48.3,0,0,1-5.114-14.861c-3.386-20-14.641-64.069-48.564-70.579,0,0-25.309-7.31-45.553,0,0,0-24.58,5.058-38.321,17.432a52.506,52.506,0,0,1-10,6.864,35.554,35.554,0,0,0-16.936,18.4C664.13,457.97,654.163,499.819,635.98,589c0,0,160.864,126.474,211.617,11.248,0,0-15.251-6.97,4.271-22.716,0,0,22.539-7.2,21.094-11.695,0,0,.6-3.018-.9-4.88A7.176,7.176,0,0,1,871.27,552.789ZM764.48,491.468c-9.407-4.994-19.416-5.426-28.844-.545-14.563,7.544-41.608,13.515-60.818-11.312,0,0,18.842-22.773,26.371-20.492,0,0,101.087-5.978,104.225,1.99,0,0,19.239,15.654,19.869,29.318C825.284,490.42,800.591,510.629,764.48,491.468Z" transform="translate(-635.98 -392.033)"/><g class="l" transform="translate(30.289 1.209)"><path class="m" d="M705.112,483.433c-7.537-2.281-26.372,20.492-26.372,20.492,9.152,11.829,20.081,16.66,30.593,17.666-7.728-2.415-15.364-7.317-22.044-15.959,0,0,18.842-22.773,26.372-20.492,0,0,67.434-3.988,93.855-1.105C793.428,478.205,705.112,483.433,705.112,483.433Z" transform="translate(-678.74 -419.271)"/><path class="m" d="M917.806,561.454a7.143,7.143,0,0,1-.808-8.167l3.273-5.511S906.6,543.108,897.2,517.239c0,0-9.024-25.04-14.939-36.019a48.3,48.3,0,0,1-5.114-14.861c-3.386-20-14.641-64.069-48.564-70.579a87.666,87.666,0,0,0-9.8-2.04c.807.205,1.254.333,1.254.333,33.93,6.51,45.178,50.59,48.564,70.579a48.3,48.3,0,0,0,5.114,14.861c5.908,10.979,14.939,36.019,14.939,36.019,9.4,25.869,23.071,30.537,23.071,30.537l-3.273,5.511a7.142,7.142,0,0,0,.807,8.167c1.495,1.856.9,4.881.9,4.881,1.445,4.5-21.094,11.695-21.094,11.695-19.522,15.746-4.271,22.716-4.271,22.716-19.522,44.321-55.336,52.878-92.021,46.63,39.575,9.074,79.533,2.84,100.57-44.923,0,0-15.251-6.97,4.271-22.716,0,0,22.539-7.2,21.094-11.695C918.706,566.334,919.3,563.31,917.806,561.454Z" transform="translate(-711.998 -393.74)"/><path class="m" d="M798.16,526.86a36.494,36.494,0,0,1,5.072,2.217,68.856,68.856,0,0,0,23.708,7.8,73.618,73.618,0,0,1-15.158-6.085A32.673,32.673,0,0,0,798.16,526.86Z" transform="translate(-713.57 -432.566)"/></g><rect class="b" width="4.696" height="39.44" transform="translate(111.004 62.934)"/></g><g transform="translate(794.473 315.812)"><ellipse class="n" cx="89.605" cy="11.907" rx="89.605" ry="11.907" transform="translate(76.627 348.481)"/><g transform="translate(99.343 345.428)"><g transform="translate(90.646)"><path class="o" d="M1127.95,803.47s40.907,8.521,42.855,13.069c0,0-32.463,4.548-42.855-2.6Z" transform="translate(-1127.95 -803.47)"/><g class="p"><path class="d" d="M1126.831,805.02c5.114,9.251,31.2,11.928,41.19,11.971,0,0-37.336,4.548-47.721-2.6Z" transform="translate(-1125.719 -803.922)"/></g></g><path class="q" d="M1042.835,803.47s-40.907,8.521-42.855,13.069c0,0,32.463,4.548,42.855-2.6Z" transform="translate(-999.98 -803.47)"/><g class="r"><path class="d" d="M1041.18,805.02c-5.114,9.251-31.2,11.928-41.19,11.971,0,0,37.337,4.548,47.721-2.6Z" transform="translate(-999.983 -803.922)"/></g></g><g transform="translate(61.227 215.483)"><g transform="translate(5.993)"><rect class="s" width="185.571" height="134.904"/><g class="t"><path class="s" d="M1153.744,608.06c-78.909,50.5-200.524,30.352-200.524,30.352,36.649,18.374,90.986,12.445,126.007,11.992-.057,0,32.761-.829,32.7-.829,0,0,62.674,101.852-111.656,101.852l146.081,2.281-8.1-96.7c-.028.007,2.3-4.675,2.274-4.675,17.723-3.421,16.767-4.392,16.767-4.392C1172.282,640.07,1153.744,608.06,1153.744,608.06Z" transform="translate(-954.219 -616.532)"/></g><g class="t"><path class="u" d="M990.932,605.58s99.147,23.212,117.146,4.71l10.8,29.2c-35.438,21.867-79.745,23.814-131.61,1.877Z" transform="translate(-964.15 -615.808)"/></g></g><path class="u" d="M1120.23,685.087l16.405,21.725,48.748-39.66c-.156-8.337-4.717-14.422-11.2-15.612Z" transform="translate(-996.936 -629.213)"/><g transform="translate(119.598 63.028)"><path class="v" d="M1127.825,709.616s-17.978-3.421-8.663,5.858c0,0-9.187,5.355-.22,6.205,0,0-9.414,1.013,3.053,5.256,0,0-8.217,3.287,5.185,1.983C1127.18,728.911,1143.727,721.176,1127.825,709.616Z" transform="translate(-1115.013 -709)"/><path class="w" d="M1125.234,726.329c.312-.057-3.386.9-4.774.411C1121.005,726.768,1123.414,727.717,1125.234,726.329Z" transform="translate(-1116.601 -714.053)"/><path class="w" d="M1126.21,717.44s-3.06,1.707-5.1.425C1121.1,717.865,1122.994,720.606,1126.21,717.44Z" transform="translate(-1116.791 -711.461)"/><path class="w" d="M1129.479,733.27a7.445,7.445,0,0,1-4.689.7A4.369,4.369,0,0,0,1129.479,733.27Z" transform="translate(-1117.864 -716.078)"/></g><g transform="translate(124.13 23.68)"><path class="s" d="M1121.41,685.842l17.822,25.033,49.591-38.612c.021-8.337-4.413-14.514-12.743-18.814Z" transform="translate(-1121.41 -653.45)"/><g class="x"><path class="u" d="M1202.915,600.781c-79.285-49.9-112.825-168.521-112.825-168.521,12.665,77.443,83.8,134.528,79.242,175.6-15.463,16.943-32.938,36-58.02,12.176l17.907,29.148,49.669-26.881C1190.682,618.412,1202.915,600.781,1202.915,600.781Z" transform="translate(-1112.275 -588.938)"/></g></g><g transform="translate(31.556 87.296)"><path class="v" d="M1001.742,743.26s17.779,4.335,5.454,8.925c0,0,6.148,8.677-2.373,5.738,0,0,8.146,4.824-4.958,3.521,0,0,6.12,6.4-5.539-.347C994.325,761.1,982.475,747.191,1001.742,743.26Z" transform="translate(-990.72 -743.26)"/><path class="w" d="M1005.123,760.7c-.262-.184,2.706,2.224,4.172,2.352C1008.785,762.849,1006.207,762.715,1005.123,760.7Z" transform="translate(-994.916 -748.342)"/><path class="w" d="M1008.18,753.42s2.812,2.09,5,1.091C1013.181,754.511,1010.95,756.983,1008.18,753.42Z" transform="translate(-995.812 -746.223)"/><path class="w" d="M998.61,765.32a7.431,7.431,0,0,0,3.974,2.578A4.344,4.344,0,0,1,998.61,765.32Z" transform="translate(-993.021 -749.694)"/></g><path class="u" d="M1002.853,718.312l-26.379,8.713L950.28,673.006c4-7.317,13.99-2.982,23.361-2.741Z" transform="translate(-947.369 -634.239)"/><g transform="translate(0 28.392)"><path class="s" d="M998.736,714.806l-23.453,14.663L946.17,670.478c4-7.317,10.852-10.6,20.223-10.363Z" transform="translate(-946.17 -660.103)"/><g class="y"><path class="z" d="M922.15,613.243c93.515-5.61,179.982-93.473,179.982-93.473C1053.781,581.573,963.949,597.4,948.2,635.6c5.4,22.292,11.56,47.4,45.008,38.583l-29.715,16.944-30.615-47.459C924.388,634.585,922.15,613.243,922.15,613.243Z" transform="translate(-939.164 -619.173)"/></g></g></g><g transform="translate(0 68.552)"><path class="s" d="M915.8,426.573l35.29-13.983-28.291,24.53s10.816,53.374,2.373,61.378c0,0-6.127,21.016-13.281,21.194,0,0,34.411,25.975,29.672,37.981,0,0,24.629,64.877-35.75,72.378l1.034-46.906s-19.246-26.556-34.17-45.6c0,0-25.274-40.227-5.178-51.695,0,0,7.848,3.216,0-18.474,0,0-6.6-35.58,16.958-34.6-1.523-8,8.642-5.681,11.992-3.457Z" transform="translate(-859.732 -412.59)"/><path class="u" d="M924.78,699.868s15.647-17.942,32.7-30.338c0,0,7.452-7.3,4.661-17.56l7.912,2.437c3.358,17.524-3.662,30.544-24.749,40.928A181.8,181.8,0,0,1,924.78,699.868Z" transform="translate(-878.704 -482.407)"/><path class="aa" d="M1139.1,626.313s23.29-3.357,25.118-1.495c0,0,32.881,14.535,29.226,22.15,0,0-.914,11.3,9.13,14.585,0,0,0,16.051,5.483,16.554,0,0,5.482,6.156,5.482,9.329,0,0,9.131,10.1,6.4,15.47,0,0-3.655,15.612,7.3,18.792,0,0,26.485,9.449,0,15.321,0,0,7.919,11.751,1.75,19.132,0,0-22.483,12.906-67.987.85,0,0-1.827-13.763,11.872-11.645,0,0,5.483-5.3,0-12.361C1172.867,733,1183.393,638.652,1139.1,626.313Z" transform="translate(-941.212 -474.324)"/><path class="ab" d="M1131.45,622.567s23.453-1.884,25.16.1c0,0,31.9,16.575,27.767,23.949,0,0-1.622,11.22,8.2,15.13,0,0-1.013,16.023,4.427,16.866,0,0,5.079,6.488,4.88,9.662,0,0,8.479,10.653,5.4,15.846,0,0-4.633,15.35,6.106,19.217,0,0,25.84,11.1-.963,15.286,0,0,7.161,12.226.538,19.21-.007-2.231-24.289-4.193-68.907-2.394,0,0,.043-14.9,13.586-11.914,0,0,5.8-4.944.779-12.339C1158.417,731.177,1174.878,637.676,1131.45,622.567Z" transform="translate(-938.981 -473.596)"/><path class="aa" d="M925.826,756.581c-9.145-59.911,30.487-87.034,30.487-87.034,10.8-9.683,15.045-20.719,15.718-31.4,6.921-3.23,12.878-5.518,12.878-5.518,2.1-1.863,28.922,1.495,28.922,1.495-51,12.339-38.881,106.7-38.881,106.7-6.311,7.062,0,12.361,0,12.361,15.775-2.118,13.671,11.645,13.671,11.645C939.667,767.971,925.826,756.581,925.826,756.581Z" transform="translate(-878.61 -476.602)"/></g><g class="ac" transform="translate(110.152 225.116)"><path class="v" d="M1066.1,641.33l12.084,20.924,12.077-20.924Z" transform="translate(-1030.074 -635.869)"/><path class="ad" d="M1086.51,648.963l-3.35,8.507s48.295-.489,56.639-10.809l1.572-13.041C1141.364,633.62,1090.9,650.486,1086.51,648.963Z" transform="translate(-1035.05 -633.62)"/><path class="ad" d="M1060.545,652.049l3.91,8.054s-19.132,7.473-49.215-2.755l3.457-14.408S1056.841,653.643,1060.545,652.049Z" transform="translate(-1015.24 -636.338)"/><path class="ad" d="M1087.03,709.69l-1.381-41.53-7.8.978,1.9,40.793,3.79,3.669Z" transform="translate(-1033.501 -643.694)"/></g><path class="u" d="M888.375,426.2l2.451,15.506s1.02,1.835,4.356,16.221c-3.478,5.419-13.876,19.848-12.261,31.415,1.431,10.257,15.761,28.752,26.8,21.98,4.25,22.7,7.353,46.637,3.839,49.811,0,0-8.181,15,7.487,20.329,6.637,3,20.067,5.334,29.4,7.147l.786-7.905L927.114,413.87Z" transform="translate(-866.446 -344.412)"/><path class="g" d="M1103.28,506s28.156,13.253,25.26,25.111c0,0,4.824,9.768-10.4,3.3C1118.148,534.412,1137.769,525.345,1103.28,506Z" transform="translate(-930.765 -371.282)"/><path class="g" d="M1051.672,506.32s-28.135,13.31-25.21,25.16c0,0-1.976,12.1,12.927,2.833C1039.389,534.307,1008.329,534.484,1051.672,506.32Z" transform="translate(-908.298 -371.376)"/><path class="g" d="M1032.48,544.087s5.7-2.033,15.945,7.338c0,0,17.347,15.548,38.7.191,0,0,11.7-9.152,17.177-8.869,0,0-11.985-4.179-24.834,5.681,0,0-15.839,7.239-27.725-3C1051.74,545.418,1040.052,539.709,1032.48,544.087Z" transform="translate(-910.116 -381.743)"/><path class="ae" d="M997.19,592.493a114.891,114.891,0,0,0,2.458,13.961s1.983-11,7.763-17.694Z" transform="translate(-899.823 -395.42)"/><path class="ae" d="M1165.071,593.863a114.444,114.444,0,0,1-2.458,13.961s-1.983-11-7.763-17.694Z" transform="translate(-945.806 -395.819)"/><path class="af" d="M1136.851,408.6l-115.424-10.923v-.425l-1.325.3-6.836-.645.035,2.175-113,25.337s31.564,127,24.225,132.134c0,0-7.338,18.353,18.353,21.286,52.417,8.061,110.09,2.451,171.043-11.673,27.894-8.883,15.527-23.432,15.527-23.432C1121.522,538.571,1136.851,408.6,1136.851,408.6Z" transform="translate(-871.564 -339.465)"/><path class="ag" d="M914.712,473.185l-10.094-37.245s.687.276,5.1-6.694-5.49-12.977-5.49-12.977L890.26,430.678C897.365,447.147,904.852,462.751,914.712,473.185Z" transform="translate(-868.636 -345.112)"/><g transform="translate(79.892 135.483)"><ellipse class="ah" cx="16.774" cy="18.396" rx="16.774" ry="18.396" transform="translate(109.998)"/><ellipse class="ah" cx="16.774" cy="18.396" rx="16.774" ry="18.396"/></g><path class="ai" d="M899.76,519.763s10.016-8.55,13.324,4.052C913.084,523.815,910.364,515.995,899.76,519.763Z" transform="translate(-871.407 -374.47)"/><path class="ai" d="M912.229,521.7s-.963-15.754-15.4-13.565C896.83,508.134,908.9,509.395,912.229,521.7Z" transform="translate(-870.552 -371.844)"/><ellipse class="v" cx="23.687" cy="25.663" rx="23.687" ry="25.663" transform="translate(20.909 113.623)"/><g transform="translate(238.107 82.534)"><ellipse class="v" cx="18.828" cy="20.4" rx="18.828" ry="20.4"/><g class="aj"><path class="ak" d="M866.693,478.317s161.976-101.009,299.713-38.824l-6.467-49.91S1050.783,319.16,859.51,422.89Z" transform="translate(-1097.775 -413.051)"/></g><g class="aj"><path class="ai" d="M1227.634,466.188s-2.288-10.384,7.473-11.638C1235.107,454.55,1227.521,457.6,1227.634,466.188Z" transform="translate(-1205.073 -438.811)"/></g><g class="aj"><path class="ai" d="M1235.482,463.013s-8.068-3.69-7.884,5.093C1227.6,468.106,1227.91,462.532,1235.482,463.013Z" transform="translate(-1205.13 -441.055)"/></g></g><g transform="translate(86.227 166.678)"><g transform="translate(0 5.544)"><path class="al" d="M1105.81,562.37c12.842,6.148-1.105,15.251-24.027,25.472-11.107,4.951-26.747,14-37.818,15.768-11.667,1.863-28.235-11.695-38.874-16.157-8.536-3.584-9.166-.007-14.408-4.788-9.981-9.109-14.408-15.442,0-15.421,16.193.021,29.807-5.993,53.282-5.993S1091.2,555.386,1105.81,562.37Z" transform="translate(-981.464 -558.947)"/><g class="am"><ellipse class="an" cx="18.134" cy="20.436" rx="18.134" ry="20.436" transform="translate(46.549 4.854)"/></g><g class="am"><path class="ao" d="M1074,600.445a3.739,3.739,0,0,1-.326-1.537,3.838,3.838,0,0,1,.9-2.458h-3.067a3.814,3.814,0,0,1,.9,2.458,3.858,3.858,0,0,1-.326,1.537,1.9,1.9,0,0,0-.7,1.5,1.673,1.673,0,1,0,3.329,0A1.934,1.934,0,0,0,1074,600.445Z" transform="translate(-1007.689 -569.885)"/></g></g><g transform="translate(9.22)"><path class="ap" d="M994.48,551.12v29.807a67.722,67.722,0,0,0,15.633,0l6.2-5.752,6.2,5.752c20.351,7.459,51.716,3.754,80.992-4.682l.595-25.125Z" transform="translate(-994.48 -551.12)"/><g class="aq"><path class="ar" d="M1025.1,555.94v20.23S1030,567.656,1025.1,555.94Z" transform="translate(-1003.411 -552.526)"/></g><g class="aq"><path class="ar" d="M1054.27,570.32v20.23S1057.8,582.029,1054.27,570.32Z" transform="translate(-1011.918 -556.72)"/></g><g class="aq"><path class="ar" d="M1101.81,567.57V587.8S1104.275,579.279,1101.81,567.57Z" transform="translate(-1025.784 -555.918)"/></g><g class="as"><path class="at" d="M1084.571,544.061c-5.752,2.663-9.187-3-14.358-.425-15.654,7.8-32.01,7.884-45.348.51-5.292-2.925-12.29,2.989-17.872-.078,0,0-38.307-5.114-24.672,52.672,0,0,9.74-35.707,49.024-21.753,0,0,8.2,3.57,14.443,3.443,6.247.127,14.443-3.443,14.443-3.443,39.285-13.961,49.024,21.753,49.024,21.753C1122.878,538.946,1084.571,544.061,1084.571,544.061Z" transform="translate(-990.078 -548.736)"/><g class="au" transform="translate(-10.691 -5.791)"><path class="av" d="M1095.03,507.38s28.156,13.253,25.26,25.111c0,0,4.824,9.768-10.4,3.3C1109.9,535.792,1129.519,526.718,1095.03,507.38Z" transform="translate(-1013.115 -532.572)"/></g><g class="au" transform="translate(-10.691 -5.791)"><path class="av" d="M1043.422,507.69s-28.135,13.31-25.21,25.16c0,0-1.976,12.1,12.927,2.833C1031.139,535.684,1000.079,535.854,1043.422,507.69Z" transform="translate(-990.649 -532.662)"/></g><g class="au" transform="translate(-10.691 -5.791)"><path class="av" d="M1024.23,545.457s5.7-2.033,15.945,7.338c0,0,17.347,15.548,38.7.191,0,0,11.7-9.152,17.177-8.868,0,0-11.985-4.179-24.834,5.681,0,0-15.839,7.239-27.724-3C1043.49,546.8,1031.8,541.086,1024.23,545.457Z" transform="translate(-992.466 -543.03)"/></g></g></g><path class="aw" d="M1011.916,597.2s-2.288-4.973,14.344,10.25c0,0,28.185,25.259,62.865.312,0,0,17.206-19.366,26.109-18.9,0,0-8.514-2.224-29.389,13.8,0,0-29.113,20.011-55.258-.694C1030.581,601.971,1024.213,590.1,1011.916,597.2Z" transform="translate(-990.315 -562.099)"/><g transform="translate(41.563 39.87)"><path class="ax" d="M1040.14,615.272s12.637-12.573,24.069-4.37c0,0,9.13-9.371,20.7,2.578C1084.914,613.472,1069.827,630.366,1040.14,615.272Z" transform="translate(-1040.14 -607.406)"/><g class="ay"><path class="az" d="M1073.531,614.554a6.614,6.614,0,0,0-.156-3.025l-2.245-1.41C1071.13,610.127,1073.552,613.166,1073.531,614.554Z" transform="translate(-1049.178 -608.198)"/></g><path class="ba" d="M1055.978,612.841a3.088,3.088,0,0,1,1.048-.3c.014,0,.723-.064.425-.05.177-.007.361-.007.538,0,.3.007.361.014.163.007,1.282.135,2.607-.2,2.968-.935.326-.652-.4-1.516-1.686-1.643a12.738,12.738,0,0,0-6.871,1.034c-.977.474-.878,1.4,0,1.891a4,4,0,0,0,3.414,0Z" transform="translate(-1043.56 -608.113)"/></g><path class="bb" d="M988.77,593.628s9.265-3.3,25.9,11.921c0,0,28.185,25.259,62.865.312,0,0,18.063-16.724,26.959-16.256,0,0-9.371-4.859-30.246,11.156,0,0-29.113,20.011-55.258-.694C1018.988,600.067,1001.067,586.523,988.77,593.628Z" transform="translate(-983.595 -562.142)"/></g><path class="ag" d="M1080.114,533.11l-41.459,12.757-19.083-7.445-14.28-2.168Q967.6,546.869,955.97,575.7l1.282,42.047c55.222,16.951,106.655,11.277,158.59-5.667v-35.75C1111.238,553.539,1104.9,548.672,1080.114,533.11Zm-.078,71.025c-5.546,19.819-31.436,10.873-31.436,10.873V598.242h-22.717v16.766s-25.89,8.953-31.436-10.873c0,0-27.739-42.04,15.718-37.939h54.153C1107.775,562.1,1080.036,604.135,1080.036,604.135Z" transform="translate(-887.801 -379.189)"/><g transform="translate(60.668 81.67)"><path class="bc" d="M957.78,502.39a115,115,0,0,0,5.794,12.934s-.765-11.149,3.209-19.054Z" transform="translate(-948.996 -450.115)"/><path class="bc" d="M963.8,494.755a114.927,114.927,0,0,0,3.117,13.827s1.459-11.078,6.913-18.041Z" transform="translate(-950.752 -448.443)"/><path class="bc" d="M1021.61,444.937a114.892,114.892,0,0,1,3.117-13.827s2.585,11.553,6.311,18.516Z" transform="translate(-967.613 -431.11)"/><g transform="translate(0 6.578)"><path class="ag" d="M1014.939,465.984c-25.67-3.613-44.98,5.256-58.672,25.153l-10.887-25.4c16.66-18.991,36.409-26.669,58.672-25.153Z" transform="translate(-945.38 -440.397)"/><g class="bd"><path class="be" d="M987.522,440.111l23.758-4.831,8.167,28.992L958.579,491.4C952.176,480.784,1022.613,444.843,987.522,440.111Z" transform="translate(-949.109 -438.905)"/></g></g><g transform="translate(109.949 7.579)"><path class="bf" d="M1100.6,469.974c24.969-6.97,45.284-.737,61.477,17.17l7.438-26.619c-19.019-16.625-39.61-21.619-61.477-17.17Z" transform="translate(-1100.6 -441.81)"/><g class="bg"><path class="be" d="M1152.011,451.49l21.9,10.4-11.836,28.086L1100.6,472.8C1101.854,460.458,1177.243,476.332,1152.011,451.49Z" transform="translate(-1100.6 -444.633)"/></g></g></g><g transform="translate(109.181 128.874)"><path class="ba" d="M1046.135,511.948a2.348,2.348,0,0,1,1.778-2.741,1.839,1.839,0,0,0,1.785-1.785,1.8,1.8,0,0,0-1.785-1.785,5.956,5.956,0,0,0-5.22,7.253c.546,2.231,3.981,1.289,3.443-.942Z" transform="translate(-1022.227 -500.048)"/><ellipse class="ba" cx="2.529" cy="2.458" rx="2.529" ry="2.458" transform="translate(15.117 14.571)"/><path class="bh" d="M1039.322,538.536c-.46,1.24-5.78.489-9.888.361-3.542-.106-6.155-3.2-5.7-4.441s4.038-1.289,7.36-.057S1039.782,537.3,1039.322,538.536Z" transform="translate(-1016.732 -508.177)"/><path class="bh" d="M1107.578,537.167c.46,1.24,5.78.489,9.889.361,3.542-.106,6.155-3.2,5.695-4.441s-4.037-1.289-7.359-.057S1107.118,535.92,1107.578,537.167Z" transform="translate(-1041.192 -507.777)"/><path class="bi" d="M1040.769,499.44s-28.4,19.777-4.378,26.506c0,0,5.313,4.781-5.362,2.84,0,0-7.714,2.1-11.957-4.732C1019.079,524.055,1015.778,514.336,1040.769,499.44Z" transform="translate(-1015.345 -498.243)"/><path class="bi" d="M1100.6,498.37s27.823,19.961,4.377,26.506c0,0-5.029,4.13,5.362,2.84,0,0,7.714,2.1,11.957-4.732C1122.3,522.978,1125.6,513.266,1100.6,498.37Z" transform="translate(-1039.165 -497.931)"/><path class="bi" d="M1032.01,530.56c18.162,5.5,38.173,5,60.131.255C1088.947,532.99,1056.717,557.668,1032.01,530.56Z" transform="translate(-1019.16 -507.319)"/><path class="ai" d="M1024.23,533.175s5.7-2.033,15.945,7.338c0,0,17.347,15.548,38.7.191,0,0,11.7-9.152,17.177-8.868,0,0-8.7-3.662-21.548,6.2,0,0-17.935,9.81-29.821-.425C1044.68,537.6,1031.8,528.8,1024.23,533.175Z" transform="translate(-1016.891 -507.497)"/><path class="ai" d="M1099.15,497.75s28.157,13.253,25.259,25.111c0,0-3.683,10.717-19.281,4.661C1105.135,527.529,1142.55,525.829,1099.15,497.75Z" transform="translate(-1038.742 -497.75)"/><path class="ai" d="M1039.292,499.44s-28.135,13.31-25.21,25.16c0,0,3.7,10.71,19.288,4.626C1033.37,529.226,995.956,527.6,1039.292,499.44Z" transform="translate(-1013.869 -498.243)"/></g><g transform="translate(6.191)"><path class="bj" d="M875.511,433.5s-3.712-35.247,53.189-23.7c0,0,24.742,12.226,23.5-2.323,0,0,0-14.684,17.319-1.742,0,0,23.5,16.363,25.975,0,0,0,18.552-23.134,33.4-4.654,0,0,7.423,14.379,22.263,0,0,0,51.716-24.332,56.667,26.57,0,0,16.688,44.54,3.081,73.852,0,0-38.753,46.559-7.827,78.477,0,0,31.847,33.2,31.847,88.635l46.262-40.411s31.691-31.16,29.219-72.832c0,0-9.053-62.674-47.4-107.965,0,0-37.634-89.116-46.29-92.665s-11.135-28.419-53.189-29.311c0,0-90.3-11.546-132.354,32.86C931.173,358.284,865.616,410.12,875.511,433.5Z" transform="translate(-870.229 -318.221)"/><path class="s" d="M869.42,423.776s1.594-33.781,58.495-22.235c0,0,24.742,12.226,23.5-2.323,0,0,0-14.684,17.319-1.742,0,0,23.5,16.363,25.975,0,0,0,18.551-23.134,33.4-4.654,0,0,7.423,14.379,22.263,0,0,0,51.716-24.332,56.667,26.57,0,0,16.689,44.54,3.081,73.852,0,0-30.926,46.616,0,78.534,0,0,26.478,31.6,26.478,87.034l49.648-29.786s25.847-40.248,23.375-81.92c0,0-9.053-62.674-47.4-107.965,0,0-37.634-89.116-46.29-92.665s-11.135-28.419-53.189-29.311c0,0-90.3-11.546-132.353,32.86C930.394,350.031,859.524,400.408,869.42,423.776Z" transform="translate(-868.472 -315.812)"/><path class="bk" d="M1047.619,379.553c-45.454,0-78.732-7.912-89.308-19.9a10.223,10.223,0,0,0-2.911,6.736c0,15.251,38.6,26.641,92.219,26.641s95.144-14.309,95.144-29.559a10.237,10.237,0,0,0-2.911-6.736C1129.269,368.722,1093.066,379.553,1047.619,379.553Z" transform="translate(-893.826 -327.746)"/><path class="u" d="M1049.271,382.316c-46.694,0-80.885-8.125-91.744-20.45a10.5,10.5,0,0,0-3,6.92c0,15.668,39.653,27.363,94.741,27.363s97.609-13.211,97.609-28.879c0-2.387-3.9-5.964-5.844-8.181C1130.177,371.422,1095.964,382.316,1049.271,382.316Z" transform="translate(-893.572 -328.435)"/><path class="bk" d="M975.781,361.683c14.167,8.224,41.913,13.366,77.577,13.366,38.4,0,69.814-8.16,83.266-17.992a9.518,9.518,0,0,0,3.053-6.51,9.136,9.136,0,0,0-2.607-6.028c-9.464,10.738-43.627,18.693-84.321,18.693s-70.87-5.964-80.333-16.7a9.15,9.15,0,0,0-2.607,6.028C969.8,355.889,971.914,358.956,975.781,361.683Z" transform="translate(-898.028 -324.185)"/><path class="u" d="M1037.883,430.4c9.655-2.33,7.084-17.928-.793-24.849C1040.15,407.866,1042.48,430.462,1037.883,430.4Z" transform="translate(-917.651 -341.985)"/><path class="u" d="M980.2,428.712c3.867-5.107,5.638-21.633-2.238-31.812C981.027,400.314,982.614,427.713,980.2,428.712Z" transform="translate(-900.405 -339.462)"/><path class="u" d="M1271.29,545.108c16.575-2.763,18.233-39.171,8.025-57.128C1283.424,494.114,1278.742,546.489,1271.29,545.108Z" transform="translate(-985.958 -366.027)"/><path class="u" d="M1101.531,425.983c-10.71,1.608-15.506-16.561-20.592-18.013C1084.786,407.878,1105.179,423.171,1101.531,425.983Z" transform="translate(-930.44 -342.691)"/></g></g></g></svg>