<svg xmlns="http://www.w3.org/2000/svg" width="52" height="51.875" viewBox="0 0 52 51.875">
  <g id="scales" transform="translate(0 -0.125)">
    <path id="Path_529" data-name="Path 529" d="M26,.125S23.625,3.188,23.625,4.5a2.336,2.336,0,0,0,1.25,2.063,3.593,3.593,0,0,0-1.562,1A6.479,6.479,0,0,0,19,6a12.117,12.117,0,0,0-5.437,1.625c-.766.383-1.453.75-2.062,1a2.019,2.019,0,1,0,.438,1.938c.836-.328,1.656-.766,2.5-1.187A10.562,10.562,0,0,1,19,8a4.285,4.285,0,0,1,3.438,1.5,3.649,3.649,0,0,0-.062.5,3.625,3.625,0,1,0,7.25,0,3.649,3.649,0,0,0-.062-.5A4.285,4.285,0,0,1,33,8a10.562,10.562,0,0,1,4.563,1.375c.844.422,1.664.859,2.5,1.188A1.969,1.969,0,1,0,40.5,8.625c-.609-.25-1.3-.617-2.062-1A12.116,12.116,0,0,0,33,6a6.479,6.479,0,0,0-4.312,1.563,3.593,3.593,0,0,0-1.562-1A2.336,2.336,0,0,0,28.375,4.5C28.375,3.188,26,.125,26,.125ZM9.688,13.438a1,1,0,0,0-.625.625L2.313,32H0a10.58,10.58,0,0,0,20,0H17.688l-6.75-17.937a1,1,0,0,0-1.125-.625Zm32,0a1,1,0,0,0-.625.625L34.313,32H32a10.58,10.58,0,0,0,20,0H49.688l-6.75-17.937a1,1,0,0,0-1.125-.625ZM22.25,16A3.737,3.737,0,0,0,24,19.188V42.625A6,6,0,0,0,20,48H16a2,2,0,0,0-2,2v2H38V50a2,2,0,0,0-2-2H32a6,6,0,0,0-4-5.375V19.188A3.737,3.737,0,0,0,29.75,16ZM10,17.313,15.563,32H4.438Zm32,0L47.563,32H36.438Z" fill="#7b9495"/>
  </g>
</svg>
