<svg xmlns="http://www.w3.org/2000/svg" width="425.064" height="79.693" viewBox="0 0 425.064 79.693"><g transform="translate(-91.795 -3561.461)"><g transform="translate(91.795 3561.461)"><path d="M801.33,427.471v25.66H810.6V437.215s16.87,3.328,17.341,21.378h9.505C837.438,458.594,836.967,426.284,801.33,427.471Z" transform="translate(-760.941 -427.439)" fill="#bcd3d4"/><path d="M737.193,459.429h22.69v-8.193H745.808s2.945-14.918,18.911-15.338V427.49S736.145,427.911,737.193,459.429Z" transform="translate(-737.062 -427.458)" fill="#bcd3d4"/><path d="M773.114,535.8v-25.66h-9.267v15.916s-16.87-3.328-17.341-21.378H737S737.477,536.989,773.114,535.8Z" transform="translate(-737 -456.185)" fill="#bcd3d4"/><path d="M842.485,503.5h-22.69v8.193h14.077s-2.945,14.918-18.911,15.338v8.407C814.96,535.432,843.533,535.012,842.485,503.5Z" transform="translate(-766.013 -455.745)" fill="#bcd3d4"/></g><text transform="translate(194.859 3598.025)" fill="#bcd3d4" font-size="33" font-family="Quicksand-Bold, Quicksand" font-weight="700"><tspan x="0" y="0">Promotion Effciency</tspan></text><text transform="translate(195.681 3634.841)" fill="#bcd3d4" font-size="18" font-family="Quicksand-Regular, Quicksand" letter-spacing="0.166em"><tspan x="0" y="0">New Vision For Advertising</tspan></text></g></svg>