<svg xmlns="http://www.w3.org/2000/svg" width="86" height="77.486" viewBox="0 0 86 77.486"><g transform="translate(-80 -39.514)"><g transform="translate(103.83 39.514)"><path d="M801.33,427.455v12.394h4.476v-7.688s8.149,1.607,8.376,10.326h4.591S818.543,426.881,801.33,427.455Z" transform="translate(-781.821 -427.439)" fill="#b8d331"/><path d="M737.179,442.917h10.96v-3.958h-6.8s1.422-7.206,9.134-7.409V427.49S736.672,427.693,737.179,442.917Z" transform="translate(-737.115 -427.475)" fill="#c5c5c4"/><path d="M754.444,519.713V507.318h-4.476v7.688s-8.149-1.607-8.376-10.326H737S737.23,520.286,754.444,519.713Z" transform="translate(-737 -481.256)" fill="#c5c5c4"/><path d="M828.255,503.5H817.3v3.958h6.8s-1.422,7.205-9.134,7.409v4.061S828.761,518.721,828.255,503.5Z" transform="translate(-791.318 -480.434)" fill="#c5c5c4"/></g><text transform="translate(81.612 100.235)" fill="#c5c5c4" font-size="17" font-family="DINNextLTW23-Regular, DIN Next LT W23"><tspan x="0" y="0">كفاءة العرض</tspan></text><text transform="translate(80 115)" fill="#c5c5c4" font-size="8" font-family="Quicksand-Regular, Quicksand" letter-spacing="0.07em"><tspan x="0" y="0">Promotion Efficiency</tspan></text></g></svg>